PathFileType	4	(X/Y/Z)	 1.8Hz3min.trc
DataRate	CameraRate	NumFrames	NumMarkers	Units	OrigDataRate	OrigDataStartFrame	OrigNumFrames
200	200	10	39	m	200	126	1000
Frame#	Time	C7			LSH			RSH			MAN			RASI			LASI			HIPR			HIPL			RPSI			LPSI			COX			RTHI1			RTHI2			RTHI3			RTHI4			RLKN			RMKN			RSHA1			RSHA2			RSHA3			RSHA4			RHEEL			RMET5			RMET1			RTOE			LTHI1			LTHI2			LTHI3			LTHI4			LLKN			LMKN			LSHA1			LSHA2			LSHA3			LSHA4			LHEEL			LMET5			LMET1			LTOE			
		X1	Y1	Z1	X2	Y2	Z2	X3	Y3	Z3	X4	Y4	Z4	X5	Y5	Z5	X6	Y6	Z6	X7	Y7	Z7	X8	Y8	Z8	X9	Y9	Z9	X10	Y10	Z10	X11	Y11	Z11	X12	Y12	Z12	X13	Y13	Z13	X14	Y14	Z14	X15	Y15	Z15	X16	Y16	Z16	X17	Y17	Z17	X18	Y18	Z18	X19	Y19	Z19	X20	Y20	Z20	X21	Y21	Z21	X22	Y22	Z22	X23	Y23	Z23	X24	Y24	Z24	X25	Y25	Z25	X26	Y26	Z26	X27	Y27	Z27	X28	Y28	Z28	X29	Y29	Z29	X30	Y30	Z30	X31	Y31	Z31	X32	Y32	Z32	X33	Y33	Z33	X34	Y34	Z34	X35	Y35	Z35	X36	Y36	Z36	X37	Y37	Z37	X38	Y38	Z38	X39	Y39	Z39	
126	0.6300	-0.313624	1.529953	-0.534444	-0.283207	1.487238	-0.777436	-0.249262	1.479637	-0.325762	-0.180674	1.440313	-0.551876	-0.238445	0.996857	-0.432018	-0.248248	0.996017	-0.671158	-0.306077	1.051742	-0.381229	-0.317356	1.062035	-0.711118	-0.419606	1.042542	-0.487081	-0.420012	1.049359	-0.594161	-0.429235	1.041644	-0.542152	-0.275753	0.780021	-0.326252	-0.245788	0.731112	-0.310265	-0.189413	0.763136	-0.314784	-0.212972	0.816076	-0.333148	-0.132629	0.465245	-0.315032	-0.110260	0.454134	-0.419448	-0.240594	0.361865	-0.282598	-0.267448	0.328351	-0.288027	-0.195270	0.332672	-0.301071	-0.216632	0.298732	-0.303201	-0.436429	0.063026	-0.369579	-0.266116	0.022913	-0.277480	-0.217826	0.043290	-0.369648	-0.181485	0.029803	-0.364268	-0.284714	0.757334	-0.765053	-0.252619	0.707819	-0.781121	-0.195846	0.739096	-0.785632	-0.220309	0.792301	-0.771469	-0.146445	0.462312	-0.775327	-0.106294	0.452539	-0.682361	-0.303395	0.346163	-0.777874	-0.324194	0.312280	-0.770905	-0.269894	0.283963	-0.784483	-0.255175	0.325064	-0.790305	-0.461403	0.063053	-0.694882	-0.303030	0.027932	-0.799563	-0.242673	0.041189	-0.718169	-0.202531	0.028756	-0.734605	
127	0.6350	-0.313405	1.528904	-0.534277	-0.282574	1.486173	-0.777434	-0.248808	1.478264	-0.325550	-0.180510	1.438905	-0.551726	-0.238705	0.995284	-0.432308	-0.248363	0.994709	-0.671047	-0.306068	1.049680	-0.381131	-0.317341	1.060612	-0.711232	-0.419784	1.041505	-0.487028	-0.420221	1.048305	-0.594232	-0.429444	1.040578	-0.542152	-0.275917	0.778558	-0.326295	-0.246092	0.729514	-0.310417	-0.190359	0.761856	-0.313854	-0.213132	0.814616	-0.332454	-0.132805	0.464525	-0.314643	-0.110296	0.452939	-0.419335	-0.240720	0.360983	-0.282460	-0.267358	0.327310	-0.287977	-0.195165	0.332065	-0.300794	-0.216323	0.298005	-0.303008	-0.436325	0.062967	-0.369644	-0.266119	0.022905	-0.277452	-0.217814	0.043284	-0.369621	-0.181426	0.029783	-0.364250	-0.284516	0.756031	-0.765139	-0.252443	0.706511	-0.781220	-0.195698	0.737821	-0.786000	-0.220155	0.791030	-0.771859	-0.145926	0.461386	-0.775749	-0.105826	0.451478	-0.682661	-0.302897	0.345645	-0.777936	-0.323698	0.311762	-0.770983	-0.269446	0.283440	-0.784707	-0.254712	0.324524	-0.790485	-0.461295	0.063069	-0.694675	-0.303030	0.027938	-0.799560	-0.242590	0.041170	-0.718169	-0.202410	0.028752	-0.734631	
128	0.6400	-0.313166	1.528219	-0.534114	-0.282066	1.485523	-0.777416	-0.248438	1.477262	-0.325343	-0.180324	1.437913	-0.551600	-0.238908	0.994045	-0.432592	-0.248386	0.993744	-0.670938	-0.305904	1.047981	-0.381070	-0.317292	1.059508	-0.711327	-0.419895	1.040798	-0.487032	-0.420342	1.047584	-0.594324	-0.429575	1.039844	-0.542191	-0.276061	0.777468	-0.326350	-0.246351	0.728309	-0.310568	-0.191173	0.760916	-0.313062	-0.213269	0.813536	-0.331868	-0.132889	0.464259	-0.314381	-0.110212	0.452254	-0.419194	-0.240799	0.360482	-0.282366	-0.267264	0.326675	-0.287925	-0.195060	0.331769	-0.300563	-0.216052	0.297606	-0.302824	-0.436133	0.062980	-0.369771	-0.266104	0.022900	-0.277420	-0.217762	0.043284	-0.369593	-0.181315	0.029770	-0.364258	-0.284336	0.754972	-0.765200	-0.252294	0.705443	-0.781279	-0.195570	0.736763	-0.786304	-0.220012	0.789981	-0.772195	-0.145447	0.460814	-0.776051	-0.105397	0.450783	-0.682974	-0.302473	0.345405	-0.777962	-0.323280	0.311542	-0.771010	-0.269085	0.283188	-0.784892	-0.254326	0.324260	-0.790624	-0.461168	0.063124	-0.694489	-0.303016	0.027944	-0.799561	-0.242495	0.041156	-0.718175	-0.202269	0.028752	-0.734657	
129	0.6450	-0.312930	1.527884	-0.533957	-0.281710	1.485295	-0.777373	-0.248164	1.476649	-0.325145	-0.180125	1.437347	-0.551499	-0.239042	0.993180	-0.432837	-0.248326	0.993141	-0.670852	-0.305626	1.046755	-0.381063	-0.317228	1.058755	-0.711411	-0.419937	1.040418	-0.487102	-0.420372	1.047200	-0.594437	-0.429624	1.039447	-0.542265	-0.276184	0.776831	-0.326405	-0.246551	0.727593	-0.310683	-0.191833	0.760410	-0.312464	-0.213403	0.812913	-0.331460	-0.132914	0.464353	-0.314243	-0.110019	0.452078	-0.419051	-0.240842	0.360320	-0.282307	-0.267202	0.326422	-0.287887	-0.194988	0.331716	-0.300390	-0.215883	0.297490	-0.302669	-0.435959	0.063032	-0.369885	-0.266082	0.022897	-0.277393	-0.217700	0.043286	-0.369568	-0.181192	0.029765	-0.364276	-0.284194	0.754209	-0.765237	-0.252187	0.704659	-0.781293	-0.195477	0.735969	-0.786547	-0.219895	0.789211	-0.772480	-0.145055	0.460586	-0.776224	-0.105013	0.450458	-0.683274	-0.302151	0.345402	-0.777960	-0.322977	0.311570	-0.770992	-0.268846	0.283147	-0.785014	-0.254047	0.324218	-0.790724	-0.461051	0.063185	-0.694336	-0.302998	0.027951	-0.799562	-0.242407	0.041147	-0.718180	-0.202140	0.028755	-0.734677	
130	0.6500	-0.312726	1.527887	-0.533808	-0.281520	1.485487	-0.777305	-0.247995	1.476427	-0.324958	-0.179927	1.437216	-0.551419	-0.239083	0.992707	-0.433044	-0.248186	0.992922	-0.670807	-0.305266	1.046101	-0.381112	-0.317134	1.058399	-0.711484	-0.419905	1.040368	-0.487230	-0.420307	1.047153	-0.594569	-0.429584	1.039383	-0.542373	-0.276300	0.776666	-0.326458	-0.246689	0.727404	-0.310748	-0.192280	0.760366	-0.312120	-0.213546	0.812773	-0.331261	-0.132934	0.464693	-0.314178	-0.109794	0.452346	-0.418932	-0.240884	0.360420	-0.282266	-0.267222	0.326501	-0.287871	-0.194996	0.331828	-0.300274	-0.215875	0.297607	-0.302556	-0.435844	0.063097	-0.369971	-0.266066	0.022893	-0.277374	-0.217649	0.043286	-0.369548	-0.181094	0.029764	-0.364286	-0.284107	0.753787	-0.765243	-0.252149	0.704200	-0.781258	-0.195444	0.735473	-0.786727	-0.219819	0.788745	-0.772713	-0.144810	0.460650	-0.776263	-0.104727	0.450462	-0.683524	-0.301963	0.345574	-0.777925	-0.322824	0.311775	-0.770926	-0.268759	0.283273	-0.785065	-0.253903	0.324341	-0.790777	-0.460961	0.063226	-0.694221	-0.302983	0.027956	-0.799563	-0.242343	0.041136	-0.718179	-0.202046	0.028757	-0.734687	
131	0.6550	-0.312575	1.528221	-0.533672	-0.281481	1.486095	-0.777216	-0.247919	1.476609	-0.324787	-0.179741	1.437527	-0.551358	-0.239012	0.992656	-0.433210	-0.247971	0.993094	-0.670813	-0.304818	1.046065	-0.381213	-0.316990	1.058468	-0.711558	-0.419795	1.040645	-0.487399	-0.420147	1.047442	-0.594718	-0.429450	1.039650	-0.542512	-0.276405	0.776966	-0.326505	-0.246775	0.727727	-0.310761	-0.192512	0.760761	-0.312033	-0.213707	0.813094	-0.331256	-0.133053	0.465170	-0.314159	-0.109650	0.452955	-0.418852	-0.240975	0.360729	-0.282229	-0.267363	0.326849	-0.287873	-0.195118	0.332059	-0.300204	-0.216044	0.297886	-0.302500	-0.435803	0.063163	-0.370022	-0.266059	0.022891	-0.277365	-0.217617	0.043285	-0.369535	-0.181036	0.029764	-0.364287	-0.284092	0.753730	-0.765210	-0.252204	0.704090	-0.781175	-0.195489	0.735297	-0.786848	-0.219790	0.788615	-0.772893	-0.144778	0.460956	-0.776164	-0.104610	0.450747	-0.683686	-0.301943	0.345850	-0.777856	-0.322834	0.312082	-0.770824	-0.268826	0.283504	-0.785048	-0.253919	0.324577	-0.790772	-0.460918	0.063253	-0.694181	-0.302975	0.027959	-0.799563	-0.242310	0.041120	-0.718167	-0.201997	0.028755	-0.734685	
132	0.6600	-0.312489	1.528882	-0.533553	-0.281567	1.487110	-0.777114	-0.247910	1.477199	-0.324638	-0.179579	1.438278	-0.551314	-0.238817	0.993039	-0.433342	-0.247685	0.993654	-0.670872	-0.304276	1.046655	-0.381348	-0.316759	1.058996	-0.711637	-0.419596	1.041253	-0.487591	-0.419888	1.048074	-0.594885	-0.429221	1.040254	-0.542671	-0.276485	0.777697	-0.326541	-0.246826	0.728508	-0.310730	-0.192558	0.761520	-0.312162	-0.213801	0.813849	-0.331478	-0.133327	0.465736	-0.314194	-0.109709	0.453780	-0.418813	-0.241161	0.361188	-0.282189	-0.267640	0.327394	-0.287880	-0.195378	0.332387	-0.300160	-0.216383	0.298295	-0.302482	-0.435834	0.063236	-0.370037	-0.266059	0.022887	-0.277361	-0.217603	0.043282	-0.369526	-0.181015	0.029766	-0.364280	-0.284151	0.754054	-0.765131	-0.252359	0.704341	-0.781049	-0.195619	0.735450	-0.786908	-0.219811	0.788835	-0.773017	-0.145002	0.461454	-0.775942	-0.104733	0.451249	-0.683719	-0.302107	0.346167	-0.777765	-0.323014	0.312412	-0.770711	-0.269026	0.283794	-0.784973	-0.254102	0.324882	-0.790708	-0.460918	0.063265	-0.694215	-0.302971	0.027960	-0.799564	-0.242304	0.041096	-0.718143	-0.201989	0.028749	-0.734670	
133	0.6650	-0.312472	1.529872	-0.533456	-0.281744	1.488519	-0.777007	-0.247939	1.478206	-0.324516	-0.179450	1.439461	-0.551288	-0.238489	0.993862	-0.433453	-0.247327	0.994592	-0.670979	-0.303632	1.047842	-0.381504	-0.316410	1.059981	-0.711732	-0.419299	1.042194	-0.487789	-0.419531	1.049039	-0.595065	-0.428895	1.041202	-0.542843	-0.276535	0.778817	-0.326585	-0.246860	0.729678	-0.310652	-0.192398	0.762553	-0.312487	-0.213854	0.814924	-0.331817	-0.133824	0.466360	-0.314242	-0.110050	0.454726	-0.418806	-0.241481	0.361743	-0.282120	-0.268051	0.328050	-0.287879	-0.195775	0.332817	-0.300127	-0.216865	0.298820	-0.302477	-0.435925	0.063324	-0.370008	-0.266058	0.022884	-0.277360	-0.217598	0.043281	-0.369520	-0.181019	0.029772	-0.364266	-0.284274	0.754760	-0.765010	-0.252600	0.704951	-0.780877	-0.195821	0.735936	-0.786908	-0.219878	0.789406	-0.773080	-0.145498	0.462095	-0.775622	-0.105164	0.451908	-0.683594	-0.302454	0.346489	-0.777666	-0.323357	0.312713	-0.770608	-0.269342	0.284124	-0.784843	-0.254440	0.325228	-0.790594	-0.460947	0.063263	-0.694307	-0.302968	0.027961	-0.799567	-0.242314	0.041071	-0.718113	-0.202011	0.028739	-0.734646	
134	0.6700	-0.312523	1.531195	-0.533380	-0.281964	1.490309	-0.776904	-0.247987	1.479625	-0.324422	-0.179342	1.441055	-0.551282	-0.238024	0.995115	-0.433564	-0.246890	0.995899	-0.671119	-0.302885	1.049569	-0.381656	-0.315919	1.061424	-0.711845	-0.418898	1.043467	-0.487978	-0.419074	1.050348	-0.595257	-0.428469	1.042478	-0.543029	-0.276560	0.780269	-0.326639	-0.246904	0.731161	-0.310579	-0.192091	0.763784	-0.312942	-0.213870	0.816281	-0.332198	-0.134576	0.467056	-0.314294	-0.110714	0.455736	-0.418813	-0.241966	0.362362	-0.282029	-0.268602	0.328776	-0.287859	-0.196320	0.333357	-0.300086	-0.217462	0.299445	-0.302469	-0.436005	0.063431	-0.369991	-0.266055	0.022881	-0.277356	-0.217594	0.043281	-0.369514	-0.181032	0.029780	-0.364249	-0.284435	0.755827	-0.764858	-0.252910	0.705918	-0.780680	-0.196065	0.736748	-0.786841	-0.219962	0.790308	-0.773074	-0.146268	0.462871	-0.775223	-0.105939	0.452704	-0.683303	-0.302979	0.346791	-0.777566	-0.323840	0.312972	-0.770518	-0.269747	0.284490	-0.784661	-0.254916	0.325605	-0.790423	-0.460990	0.063260	-0.694444	-0.302962	0.027963	-0.799569	-0.242332	0.041043	-0.718077	-0.202048	0.028724	-0.734613	
135	0.6750	-0.312636	1.532854	-0.533326	-0.282191	1.492465	-0.776812	-0.248030	1.481456	-0.324355	-0.179262	1.443043	-0.551290	-0.237434	0.996803	-0.433673	-0.246370	0.997561	-0.671279	-0.302030	1.051782	-0.381830	-0.315280	1.063308	-0.711976	-0.418389	1.045066	-0.488153	-0.418522	1.051987	-0.595454	-0.427945	1.044091	-0.543222	-0.276568	0.782009	-0.326718	-0.246991	0.732896	-0.310543	-0.191673	0.765156	-0.313494	-0.213790	0.817852	-0.332623	-0.135592	0.467841	-0.314372	-0.111706	0.456787	-0.418821	-0.242643	0.363052	-0.281943	-0.269298	0.329543	-0.287831	-0.197017	0.334023	-0.300039	-0.218159	0.300147	-0.302451	-0.436052	0.063557	-0.369975	-0.266046	0.022878	-0.277347	-0.217584	0.043283	-0.369507	-0.181046	0.029792	-0.364233	-0.284602	0.757244	-0.764696	-0.253246	0.707222	-0.780475	-0.196309	0.737868	-0.786710	-0.220025	0.791529	-0.772998	-0.147308	0.463777	-0.774754	-0.107068	0.453634	-0.682850	-0.303669	0.347081	-0.777465	-0.324448	0.313198	-0.770444	-0.270232	0.284879	-0.784434	-0.255519	0.326025	-0.790191	-0.461036	0.063269	-0.694611	-0.302953	0.027966	-0.799568	-0.242348	0.041019	-0.718037	-0.202087	0.028707	-0.734574	
